<?xml version="1.0" encoding="utf-8"?>
<!-- Generator: Adobe Illustrator 27.8.0, SVG Export Plug-In . SVG Version: 6.00 Build 0)  -->
<svg version="1.1" id="Layer_1" xmlns="http://www.w3.org/2000/svg" xmlns:xlink="http://www.w3.org/1999/xlink" x="0px" y="0px"
	 viewBox="0 0 1600 800" style="enable-background:new 0 0 1600 800;" xml:space="preserve">
<style type="text/css">
	.st0{clip-path:url(#SVGID_00000164477720722914893260000009490114692700879029_);}
	.st1{fill:#E0D3F5;}
	.st2{fill:url(#SVGID_00000138536955636698620710000014163925840676889001_);}
</style>
<g>
	<g>
		<defs>
			<rect id="SVGID_1_" width="1600" height="797"/>
		</defs>
		<clipPath id="SVGID_00000052093979491991505230000009779921063853973391_">
			<use xlink:href="#SVGID_1_"  style="overflow:visible;"/>
		</clipPath>
		<g style="clip-path:url(#SVGID_00000052093979491991505230000009779921063853973391_);">
			<path class="st1" d="M-140,181l108,200c0,0,56,92,236,62c0,0,342-90,555-27l213,89c0,0,190,116,432,32l205-68V-32H-140V181z"/>
			
				<linearGradient id="SVGID_00000165925132554866867570000001730769545700436414_" gradientUnits="userSpaceOnUse" x1="244.727" y1="162.6464" x2="1078.0887" y2="902.5613" gradientTransform="matrix(1 0 0 -1 0 800)">
				<stop  offset="0" style="stop-color:#702DC8"/>
				<stop  offset="0.6371" style="stop-color:#474FC8"/>
				<stop  offset="1" style="stop-color:#355EC8"/>
			</linearGradient>
			<path style="fill:url(#SVGID_00000165925132554866867570000001730769545700436414_);" d="M-140,165l108,200c0,0,56,92,236,62
				c0,0,342-90,555-27l213,89c0,0,190,116,432,32l205-68V-48H-140V165z"/>
		</g>
	</g>
</g>
</svg>
